<svg width="572" height="139" viewBox="0 0 572 139" fill="none" xmlns="http://www.w3.org/2000/svg">
<line x1="571.705" y1="70.5648" x2="153.109" y2="70.5648" stroke="black" stroke-width="2" stroke-dasharray="4 4"/>
<g opacity="0.48">
<circle cx="69.5525" cy="69.5648" r="68.8259" fill="#F1E1E1"/>
<path d="M69.8263 35.397L57.8141 69.5648L69.8263 103.733C78.3141 103.733 85.2195 96.8272 85.2195 88.3393V50.7902C85.2195 42.3023 78.3141 35.397 69.8263 35.397Z" fill="#012631"/>
<path d="M54.4326 50.7902V88.3393C54.4326 96.8272 61.338 103.733 69.826 103.733V35.397C61.338 35.397 54.4326 42.3023 54.4326 50.7902Z" fill="#353A3D"/>
<path d="M69.8253 43.405L66.1327 50.7902L69.8253 58.1755C73.9041 58.1755 77.2105 54.869 77.2105 50.7902C77.2105 46.7114 73.904 43.405 69.8253 43.405Z" fill="#5AA811"/>
<path d="M62.4414 50.7902C62.4414 54.869 65.7479 58.1755 69.8267 58.1755V43.405C65.7479 43.405 62.4414 46.7114 62.4414 50.7902Z" fill="#76BF32"/>
<path d="M69.8253 62.1796L66.1327 69.5647L69.8253 76.9499C73.904 76.9499 77.2105 73.6435 77.2105 69.5647C77.2105 65.486 73.904 62.1796 69.8253 62.1796Z" fill="#FFAB37"/>
<path d="M62.4414 69.5647C62.4414 73.6435 65.7479 76.9499 69.8267 76.9499V62.1796C65.7479 62.1796 62.4414 65.486 62.4414 69.5647Z" fill="#FFCD37"/>
<path d="M69.8253 80.954L66.1327 88.3393L69.8253 95.7245C73.9041 95.7245 77.2105 92.4179 77.2105 88.3393C77.2105 84.2606 73.904 80.954 69.8253 80.954Z" fill="#FF0037"/>
<path d="M62.4414 88.3393C62.4414 92.4181 65.7479 95.7245 69.8267 95.7245V80.954C65.7479 80.954 62.4414 84.2605 62.4414 88.3393Z" fill="#FF4437"/>
</g>
</svg>
