<svg width="557" height="139" viewBox="0 0 557 139" fill="none" xmlns="http://www.w3.org/2000/svg">
<circle cx="68.8259" cy="69.5648" r="68.8259" fill="#EBD5D5"/>
<line x1="556.247" y1="70.5648" x2="137.651" y2="70.5648" stroke="black" stroke-width="2" stroke-dasharray="4 4"/>
<path d="M68.8261 35.397L56.814 69.5648L68.8261 103.733C77.314 103.733 84.2193 96.8272 84.2193 88.3393V50.7902C84.2193 42.3023 77.314 35.397 68.8261 35.397Z" fill="#012631"/>
<path d="M53.4324 50.7902V88.3393C53.4324 96.8272 60.3378 103.733 68.8258 103.733V35.397C60.3378 35.397 53.4324 42.3023 53.4324 50.7902Z" fill="#353A3D"/>
<path d="M68.8252 43.405L65.1325 50.7902L68.8252 58.1755C72.9039 58.1755 76.2103 54.869 76.2103 50.7902C76.2103 46.7114 72.9038 43.405 68.8252 43.405Z" fill="#5AA811"/>
<path d="M61.4412 50.7902C61.4412 54.869 64.7478 58.1755 68.8266 58.1755V43.405C64.7478 43.405 61.4412 46.7114 61.4412 50.7902Z" fill="#76BF32"/>
<path d="M68.8252 62.1796L65.1325 69.5647L68.8252 76.9499C72.9038 76.9499 76.2103 73.6435 76.2103 69.5647C76.2103 65.486 72.9038 62.1796 68.8252 62.1796Z" fill="#FFAB37"/>
<path d="M61.4412 69.5647C61.4412 73.6435 64.7478 76.9499 68.8266 76.9499V62.1796C64.7478 62.1796 61.4412 65.486 61.4412 69.5647Z" fill="#FFCD37"/>
<path d="M68.8252 80.954L65.1325 88.3393L68.8252 95.7245C72.9039 95.7245 76.2103 92.4179 76.2103 88.3393C76.2103 84.2606 72.9038 80.954 68.8252 80.954Z" fill="#FF0037"/>
<path d="M61.4412 88.3393C61.4412 92.4181 64.7478 95.7245 68.8266 95.7245V80.954C64.7478 80.954 61.4412 84.2605 61.4412 88.3393Z" fill="#FF4437"/>
</svg>
